<svg width="18" height="17" viewBox="0 0 18 17" fill="none" xmlns="http://www.w3.org/2000/svg">
<path d="M2.98224 2.05931H13.8846V11.9151H2.98224V2.05931Z" fill="#990808"/>
<path d="M1.99112 3.04488H3.97336V9.94391H1.99112V3.04488Z" fill="#990808"/>
<path d="M4.96448 10.9295H12.8934V12.9006H4.96448V10.9295Z" fill="#990808"/>
<path d="M13.8846 2.05931H15.8668V9.94391H13.8846V2.05931Z" fill="#990808"/>
<path d="M6.94672 11.9151H10.9112V14.8718H6.94672V11.9151Z" fill="#990808"/>
<path d="M4.96448 1.07373H6.94672V2.05931H4.96448V1.07373Z" fill="#990808"/>
<path d="M10.9112 1.07373H13.8846V2.05931H10.9112V1.07373Z" fill="#990808"/>
<path d="M3.97336 1.07373H4.96448V2.05931H3.97336V1.07373Z" fill="#990808"/>
<path d="M5.9556 12.9006H6.94672V13.8862H5.9556V12.9006Z" fill="#990808"/>
<path d="M9.92008 11.9151H10.9112V12.9006H9.92008V11.9151Z" fill="#990808"/>
<path d="M10.9112 12.9006H11.9023V13.8862H10.9112V12.9006Z" fill="#990808"/>
<path d="M13.8846 9.94391H14.8757V10.9295H13.8846V9.94391Z" fill="#990808"/>
<path d="M15.8668 6.98718H16.8579V7.97276H15.8668V6.98718Z" fill="#990808"/>
<path d="M15.8668 6.00161H16.8579V6.98718H15.8668V6.00161Z" fill="#990808"/>
<path d="M15.8668 5.01603H16.8579V6.00161H15.8668V5.01603Z" fill="#990808"/>
<path d="M15.8668 4.03046H16.8579V5.01603H15.8668V4.03046Z" fill="#990808"/>
<path d="M1 5.01603H1.99112V6.00161H1V5.01603Z" fill="#990808"/>
<path d="M1 4.03046H1.99112V5.01603H1V4.03046Z" fill="#990808"/>
<path d="M1 6.00161H1.99112V6.98718H1V6.00161Z" fill="#990808"/>
<path d="M1.99112 6.98718H2.98224V7.97276H1.99112V6.98718Z" fill="#990808"/>
<path d="M1 6.98718H1.99112V7.97276H1V6.98718Z" fill="#990808"/>
<path d="M6.94672 1.07373H7.93784V2.05931H6.94672V1.07373Z" fill="#990808"/>
<path d="M9.92008 1.07373H10.9112V2.05931H9.92008V1.07373Z" fill="#990808"/>
<path d="M8.92896 14.8718H9.92008V15.8574H8.92896V14.8718Z" fill="#990808"/>
<path d="M7.93784 14.8718H8.92896V15.8574H7.93784V14.8718Z" fill="#990808"/>
<path d="M1.99112 3.04488H2.98224V4.03046H1.99112V3.04488Z" fill="#990808"/>
<path d="M1.99112 2.05931H2.98224V3.04488H1.99112V2.05931Z" fill="#990808"/>
<path d="M3.97336 11.9151H4.96448V12.9006H3.97336V11.9151Z" fill="#990808"/>
<path d="M4.96448 12.9006H5.9556V13.8862H4.96448V12.9006Z" fill="#990808"/>
<path d="M12.8934 11.9151H13.8846V12.9006H12.8934V11.9151Z" fill="#990808"/>
<path d="M13.8846 10.9295H14.8757V11.9151H13.8846V10.9295Z" fill="#990808"/>
<path fill-rule="evenodd" clip-rule="evenodd" d="M8.73247 15.6635C6.93969 14.5664 5.27189 13.2751 3.75893 11.8127C2.69525 10.7596 1.88548 9.47576 1.39165 8.0595C0.502984 5.31214 1.541 2.16694 4.44597 1.23614C5.9727 0.747393 7.64012 1.02674 8.92663 1.98679C10.2136 1.0279 11.8805 0.74866 13.4073 1.23614C16.3123 2.16694 17.3577 5.31214 16.4691 8.0595C15.9752 9.47576 15.1655 10.7596 14.1018 11.8127C12.5888 13.2751 10.921 14.5664 9.12826 15.6635L8.9341 15.7836L8.73247 15.6635Z" stroke="#990808" stroke-width="1.18691" stroke-linecap="round" stroke-linejoin="round"/>
<path d="M12.0173 4.32886C12.8972 4.60835 13.5224 5.39386 13.6005 6.31807" stroke="#FFF9F9" stroke-width="1.18691" stroke-linecap="round" stroke-linejoin="round"/>
</svg>
