<svg width="17" height="18" viewBox="0 0 17 18" fill="none" xmlns="http://www.w3.org/2000/svg">
<path d="M14.9023 7.20959C14.9023 7.20959 14.422 12.7549 14.1434 15.0908C14.0107 16.2065 13.2704 16.8602 12.0577 16.8808C9.7499 16.9195 7.43949 16.922 5.13261 16.8767C3.96591 16.8545 3.23793 16.1925 3.1079 15.0966C2.8275 12.7401 2.34985 7.20959 2.34985 7.20959" stroke="#FFF9F9" stroke-width="1.69753" stroke-linecap="round" stroke-linejoin="round"/>
<path d="M16.1257 4.55133H1.12573" stroke="#FFF9F9" stroke-width="1.69753" stroke-linecap="round" stroke-linejoin="round"/>
<path d="M13.2354 4.5513C12.5411 4.5513 11.9431 4.09434 11.8069 3.46117L11.5919 2.45996C11.4593 1.99805 11.0099 1.67859 10.4978 1.67859H6.75352C6.24137 1.67859 5.79202 1.99805 5.65934 2.45996L5.4444 3.46117C5.30818 4.09434 4.71023 4.5513 4.01587 4.5513" stroke="#FFF9F9" stroke-width="1.69753" stroke-linecap="round" stroke-linejoin="round"/>
</svg>
